<svg width="21" height="21" viewBox="0 0 21 21" fill="none" xmlns="http://www.w3.org/2000/svg">
<rect width="21" height="21" rx="10.5" fill="#F0F0F0"/>
<path d="M11.0154 14.175C7.06924 14.175 4.81839 11.416 4.72461 6.82501H6.70131C6.76624 10.1947 8.22352 11.622 9.3778 11.9163V6.82501H11.2391V9.73117C12.3789 9.60609 13.5765 8.28177 13.9805 6.82501H15.8418C15.6895 7.58053 15.3861 8.29588 14.9504 8.92633C14.5146 9.55677 13.9561 10.0887 13.3096 10.489C14.0312 10.8547 14.6686 11.3723 15.1797 12.0077C15.6908 12.6431 16.064 13.3818 16.2746 14.175H14.2258C14.0367 13.486 13.6524 12.8692 13.1211 12.402C12.5898 11.9348 11.9351 11.6378 11.2391 11.5484V14.175H11.0154V14.175Z" fill="#131313"/>
</svg>
