<svg width="26" height="26" viewBox="0 0 26 26" fill="none" xmlns="http://www.w3.org/2000/svg">
<path d="M5.26076 19.8942L1.90258 20.2897L0.464182 17.383L2.82523 14.9522L2.65903 12.4066L0 10.3083L1.03725 7.24675L4.4298 7.18942L6.10888 5.2688L5.7192 1.90915L8.61891 0.475853L11.0487 2.83219L13.5989 2.6602L15.6963 0L18.7564 1.04917L18.808 4.43175L20.7221 6.10011L24.0802 5.70452L25.5186 8.62271L23.1576 11.0536L23.341 13.5991L26 15.6975L24.957 18.7647L21.5759 18.8163L19.9026 20.7369L20.2923 24.1023L17.3925 25.5356L14.9628 23.1735L12.4183 23.3455L10.3209 26L7.25501 24.9623L7.18051 21.5797L5.26076 19.8942ZM10.5903 15.7433C11.1329 16.2168 11.8035 16.5188 12.5176 16.6113C13.2316 16.7038 13.957 16.5827 14.6023 16.2632C15.2476 15.9437 15.7839 15.4402 16.1434 14.8161C16.503 14.1921 16.6697 13.4754 16.6226 12.7567C16.5755 12.0379 16.3167 11.3492 15.8788 10.7774C15.4409 10.2057 14.8435 9.77649 14.162 9.54402C13.4806 9.31155 12.7455 9.28621 12.0497 9.4712C11.3539 9.65619 10.7284 10.0432 10.2522 10.5835C9.93374 10.9435 9.68977 11.3631 9.53432 11.818C9.37886 12.2729 9.315 12.7542 9.34644 13.2339C9.37787 13.7136 9.50397 14.1824 9.71746 14.6131C9.93094 15.0438 10.2276 15.4279 10.5903 15.7433Z" fill="#BACADB"/>
</svg>
