<svg width="28" height="28" viewBox="0 0 28 28" fill="none" xmlns="http://www.w3.org/2000/svg">
<path d="M5.66667 21.4029L2.04301 21.8273L0.500001 18.7007L3.04301 16.0844L2.86022 13.3446L8.84764e-07 11.0883L1.11828 7.77897L4.76344 7.72524L6.57527 5.65694L6.15054 2.03607L9.27957 0.494243L11.871 3.04067L14.6129 2.85802L16.8763 0L20.1828 1.11742L20.2366 4.75978L22.3011 6.57022L25.9516 6.1673L27.5 9.27244L24.957 11.8887L25.1398 14.6285L28 16.9117L26.8817 20.2156L23.2312 20.2694L21.4194 22.3323L21.8441 25.9532L18.7151 27.5004L16.0968 24.9593L13.3548 25.142L11.0968 28L7.79032 26.8826L7.73656 23.2348L5.66667 21.4029ZM11.2097 17.1696C11.8415 17.7199 12.6225 18.0705 13.4539 18.1771C14.2852 18.2837 15.1295 18.1415 15.8799 17.7686C16.6304 17.3956 17.2532 16.8085 17.6697 16.0817C18.0862 15.3549 18.2776 14.521 18.2196 13.6855C18.1617 12.85 17.857 12.0505 17.3442 11.388C16.8313 10.7256 16.1334 10.23 15.3386 9.96407C14.5439 9.6981 13.688 9.67367 12.8793 9.89386C12.0707 10.1141 11.3455 10.569 10.7957 11.2011C10.4304 11.62 10.1512 12.1067 9.97431 12.6335C9.79738 13.1603 9.7261 13.7168 9.76455 14.2711C9.803 14.8254 9.95042 15.3667 10.1984 15.8641C10.4464 16.3614 10.79 16.8051 11.2097 17.1696V17.1696Z" fill="url(#paint0_linear_1205_791)"/>
<defs>
<linearGradient id="paint0_linear_1205_791" x1="23.0054" y1="2.10591" x2="-3.85012" y2="37.5824" gradientUnits="userSpaceOnUse">
<stop offset="0.03" stop-color="#FFD22E"/>
<stop offset="0.86" stop-color="#FFC12E"/>
</linearGradient>
</defs>
</svg>
