<svg width="67" height="67" viewBox="0 0 67 67" fill="none" xmlns="http://www.w3.org/2000/svg">
<path d="M13.5566 51.2657L4.90281 52.2851L1.19616 44.7947L7.28039 38.5305L6.85212 31.9709L-2.20173e-06 26.5636L2.6729 18.6743L11.4153 18.5266L15.7421 13.5773L14.7379 4.91973L22.2103 1.22624L28.4717 7.29834L35.0432 6.85513L40.4481 0L48.3339 2.70364L48.4668 11.4203L53.3991 15.7195L62.0529 14.7001L65.7595 22.2201L59.6753 28.4842L60.1479 35.0439L67 40.4512L64.3123 48.3552L55.5995 48.4882L51.2874 53.4375L52.2916 62.1098L44.8192 65.8033L38.5579 59.7164L32.0011 60.1596L26.5962 67L18.6956 64.3259L18.5036 55.6093L13.5566 51.2657ZM27.2903 40.5693C28.6886 41.7893 30.4168 42.5676 32.2568 42.8061C34.0968 43.0445 35.9662 42.7323 37.629 41.9091C39.2919 41.0858 40.6738 39.7882 41.6004 38.18C42.5269 36.5719 42.9566 34.7252 42.8352 32.873C42.7139 31.0208 42.0468 29.246 40.9184 27.7726C39.7899 26.2993 38.2505 25.1933 36.4944 24.5942C34.7384 23.9951 32.8443 23.9298 31.0511 24.4065C29.258 24.8832 27.6462 25.8806 26.419 27.2728C25.5985 28.2006 24.9698 29.2819 24.5692 30.4542C24.1686 31.6264 24.004 32.8665 24.085 34.1027C24.1661 35.3389 24.491 36.5469 25.0411 37.6568C25.5913 38.7667 26.3557 39.7566 27.2903 40.5693V40.5693Z" fill="#E3ECF5"/>
</svg>
