<svg width="32" height="32" viewBox="0 0 32 32" fill="none" xmlns="http://www.w3.org/2000/svg">
<path d="M16 32C24.8366 32 32 24.8366 32 16C32 7.16344 24.8366 0 16 0C7.16344 0 0 7.16344 0 16C0 24.8366 7.16344 32 16 32Z" fill="url(#paint0_linear_1202_596)"/>
<path fill-rule="evenodd" clip-rule="evenodd" d="M22.7895 18.7525L20.4504 19.4381L18.8085 14.5413C18.8085 14.5413 24.8434 11.8068 26.7102 12.1831C28.2339 12.4903 28.6744 15.4952 28.7849 16.5896C29.0305 18.6265 28.8207 20.7042 28.1408 22.6664C27.1308 25.5809 25.1665 28.0692 22.566 29.7281C19.9654 31.387 16.881 32.1194 13.8123 31.8067C10.7436 31.4939 7.87035 30.1543 5.6579 28.005C3.44549 25.8555 2.02351 23.0222 1.62225 19.9638C1.22098 16.9054 1.864 13.8011 3.44711 11.1537C5.03023 8.50637 7.46068 6.47096 10.3449 5.37723C13.2291 4.2835 16.398 4.19549 19.3385 5.12745L17.5001 10.9279C15.8661 10.41 14.1051 10.4589 12.5024 11.0667C10.8997 11.6745 9.54913 12.8055 8.66945 14.2766C7.78973 15.7477 7.43241 17.4727 7.6554 19.1722C7.87834 20.8717 8.66854 22.4462 9.89796 23.6406C11.1274 24.835 12.724 25.5794 14.4292 25.7532C16.1345 25.927 17.8484 25.52 19.2935 24.5981C20.7386 23.6763 21.8302 22.2936 22.3914 20.674C22.6079 20.0492 22.7406 19.4033 22.7895 18.7525Z" fill="white"/>
<defs>
<linearGradient id="paint0_linear_1202_596" x1="6.30668" y1="3.46192" x2="29.1552" y2="25.3321" gradientUnits="userSpaceOnUse">
<stop stop-color="#ED4A27"/>
<stop offset="1" stop-color="#EF9A3E"/>
</linearGradient>
</defs>
</svg>
