<svg width="112" height="112" viewBox="0 0 112 112" fill="none" xmlns="http://www.w3.org/2000/svg">
<path d="M50.5514 79.038C71.325 79.038 88.1654 62.1977 88.1654 41.4241C88.1654 20.6505 71.325 3.81018 50.5514 3.81018C29.7778 3.81018 12.9375 20.6505 12.9375 41.4241C12.9375 62.1977 29.7778 79.038 50.5514 79.038Z" fill="url(#paint0_linear_1202_559)"/>
<path fill-rule="evenodd" clip-rule="evenodd" d="M66.5135 47.8947L61.0146 49.5064L57.1547 37.9948C57.1547 37.9948 71.3421 31.5662 75.7308 32.451C79.3126 33.1731 80.3483 40.2372 80.608 42.81C81.1855 47.5986 80.6923 52.4829 79.0939 57.0957C76.7195 63.9474 72.1017 69.797 65.9881 73.6969C59.8746 77.5968 52.6235 79.3185 45.4094 78.5834C38.1953 77.8482 31.4406 74.699 26.2394 69.646C21.0383 64.593 17.6954 57.9321 16.7521 50.7422C15.8088 43.5524 17.3205 36.2546 21.0422 30.031C24.7639 23.8074 30.4775 19.0224 37.2579 16.4512C44.0382 13.88 51.4881 13.6731 58.4007 15.864L54.0788 29.5001C50.2376 28.2826 46.0978 28.3976 42.33 29.8264C38.5623 31.2552 35.3872 33.9141 33.3192 37.3725C31.2511 40.8309 30.4111 44.8862 30.9353 48.8815C31.4594 52.8768 33.3171 56.5782 36.2073 59.3861C39.0975 62.194 42.8509 63.9439 46.8597 64.3525C50.8684 64.7609 54.8978 63.8042 58.295 61.6371C61.6922 59.47 64.2583 56.2194 65.5777 52.412C66.0867 50.9431 66.3986 49.4246 66.5135 47.8947Z" fill="white"/>
<path d="M13.6556 87.3204L14.9644 87.396L15.808 87.3204L16.0352 87.4718C16.3597 87.6232 16.7166 87.7494 17.1061 87.8503L18.1119 88.3154L18.8042 89.0834C18.7465 89.4299 18.642 89.7861 18.4906 90.1547C18.2886 90.4285 18.0074 90.634 17.6468 90.7705C17.3223 90.6624 16.9907 90.5073 16.6518 90.3053C16.32 90.1467 15.9342 90.0209 15.4944 89.9269L15.1915 89.7001C14.9752 89.7435 14.7445 89.8188 14.4993 89.9269L13.807 89.7001L13.5799 89.8516L12.5091 90.23L11.7411 90.922C11.5176 91.1604 11.3121 91.4412 11.1246 91.7656L10.5837 92.6853L10.7352 94.9891L11.4275 95.7573L11.9682 96.6762L12.8876 97.2176L14.0342 97.5197C14.4164 97.4914 14.8274 97.4152 15.2673 97.2929C15.5918 97.2282 15.9234 97.1272 16.2623 96.9899L17.1061 96.374L17.7226 95.5296L17.5712 95.3028L16.7274 95.379L15.7324 95.2159L15.5701 95.379L14.1964 95.3028C13.9873 95.0148 13.807 94.679 13.6556 94.2971L13.5799 93.4535L13.6556 93.1505C13.7061 92.8909 13.8863 92.7358 14.1964 92.6853L15.0401 92.61L15.3429 92.6853H17.874L18.4906 92.61L18.7177 92.6853H19.0313C19.3631 92.7216 19.72 92.8005 20.1021 92.9236L20.2536 93.8425L20.1779 93.9187L20.2536 94.1455L20.3401 95.2159L20.2536 95.9842L20.3401 96.2225V96.9899L19.9507 97.2929L19.2585 98.0611C19.0133 98.2631 18.7573 98.5192 18.4906 98.8293L17.6468 99.4452L15.7324 100.289L14.575 100.138L13.9584 100.289L13.5042 99.975C13.1364 99.968 12.7759 99.8421 12.4225 99.5967L11.3517 99.2077L9.74011 97.9096C9.49493 97.7217 9.31461 97.4657 9.19925 97.1414L8.59355 96.4493L8.43131 95.6058L8.05273 94.4592L8.27988 92.2307L8.59355 91.0735L9.04782 90.0785L10.5837 88.6182L11.5031 88.0883L13.6556 87.3204ZM13.6772 99.5107L13.6015 99.229C13.515 99.3158 13.4681 99.4097 13.4609 99.5107H13.6772ZM14.0558 98.9259V98.6344H13.9044L13.9801 98.9259H14.0558ZM17.6144 98.5582C17.5278 98.6087 17.4774 98.6814 17.463 98.7753L17.6144 98.5582ZM18.2093 97.5419L18.7826 96.6655L18.3716 96.6221L17.7766 97.261L18.2093 97.5419ZM11.0922 98.5582C11.0488 98.3996 10.9516 98.2986 10.8001 98.2561C10.901 98.3854 10.9984 98.4864 11.0922 98.5582ZM10.5729 98.3314L10.8001 98.2561L10.6487 97.9636L10.4973 98.1799L10.5729 98.3314ZM11.5356 98.1799H11.6113V98.0283L11.5356 98.1799ZM15.754 97.9636C15.8477 97.9344 15.8982 97.8839 15.9054 97.8121C15.8261 97.8555 15.7756 97.9061 15.754 97.9636ZM19.1719 97.8121C19.3018 97.6828 19.3991 97.5348 19.464 97.3691C19.3342 97.4985 19.2369 97.6464 19.1719 97.8121ZM9.76173 91.9064V91.5821L9.43725 90.8139L9.27501 91.1276L9.59949 91.9064H9.76173ZM12.7254 97.7368C12.8047 97.6863 12.8552 97.6358 12.8768 97.5853L12.574 97.5091L12.7254 97.7368ZM9.53454 96.7737V96.6336L9.38311 96.5574L9.45887 96.7737H9.53454ZM19.9831 95.3028C20.0625 95.1734 20.1094 95.0467 20.1238 94.9244C20.0373 95.0396 19.9904 95.1654 19.9831 95.3028ZM9.90235 95.2274C9.85911 95.0688 9.78335 94.9421 9.67516 94.8482L9.90235 95.2274ZM15.8189 89.2677V88.6404H15.4079L15.6134 89.2677H15.8189ZM12.1305 89.6567C12.217 89.6274 12.2639 89.5849 12.2711 89.5273L12.1305 89.1481V89.6567ZM18.0579 89.1481L17.755 88.9966L17.9064 89.2243L18.0579 89.1481ZM13.0174 88.4777V88.2614L12.9418 88.4777H13.0174ZM15.0942 88.1856C15.2239 88.0991 15.2997 87.9981 15.3213 87.8828L14.8022 87.9585L15.0942 88.1856Z" fill="#EE7D35"/>
<path d="M27.7274 87.3528L28.8415 87.5691L28.9929 87.4176C29.2525 87.5835 29.4977 87.8323 29.7284 88.164C29.887 88.0847 30.0601 88.0342 30.2476 88.0126L30.5396 88.3804L30.399 88.6075C30.6009 88.6003 30.7992 88.5498 30.9939 88.456L31.286 88.8344C31.4301 89.1162 31.6284 89.3607 31.8809 89.5698C32.2414 89.8011 32.5118 90.1219 32.6921 90.533C32.9878 90.836 33.2365 91.1816 33.4384 91.5715L33.579 92.7606L33.4384 92.8368V92.9777H33.5141L33.7305 94.0153L33.6547 94.1668L33.3627 95.4977C33.2617 95.8867 33.0887 96.3084 32.8435 96.763L32.1729 97.8662C31.9349 98.1479 31.6392 98.4217 31.286 98.6884C31.0119 98.9915 30.6658 99.236 30.2476 99.4239L29.0577 100.018L27.576 100.246H26.8404L26.6132 100.321L24.9151 99.6507C24.5474 99.5072 24.176 99.283 23.801 98.98C23.4694 98.7859 23.1484 98.5157 22.8384 98.1692C22.5788 97.8803 22.33 97.5596 22.092 97.206C21.8901 96.8676 21.7171 96.4458 21.5729 95.9407C21.4142 95.6022 21.3169 95.2088 21.2808 94.7622L21.2051 94.5345L21.2808 93.8646L21.2051 93.2798C21.2411 92.7827 21.389 92.3105 21.6486 91.863C21.6774 91.5387 21.7784 91.171 21.9514 90.7598C22.0957 90.4134 22.3156 90.0421 22.6112 89.646L23.5739 88.8344C23.9056 88.5895 24.3022 88.3912 24.7636 88.2397L25.3586 87.8611L25.6506 88.3154C25.8309 88.0198 26.1049 87.7963 26.4727 87.6448C26.8549 87.6015 27.2731 87.5042 27.7274 87.3528ZM30.0205 88.6075C30.0709 88.7733 30.1466 88.946 30.2476 89.1268L30.3233 88.6829L30.0205 88.6075ZM27.4353 89.4945C27.2118 89.6815 26.9378 89.8552 26.6132 90.0138L26.0184 90.0891L25.9535 89.7214C25.7516 89.8658 25.6002 90.0643 25.4992 90.3168L24.7636 90.836C24.5762 90.9291 24.4284 91.0771 24.3203 91.2791L24.5365 91.863L24.1688 92.0145L23.7253 92.0907L23.5739 92.0145C23.5955 92.1297 23.646 92.2307 23.7253 92.3176L23.9524 92.4584L23.801 92.9777C23.765 93.2373 23.6893 93.5111 23.5739 93.7991L23.4333 94.4592C23.664 94.5815 23.7866 94.78 23.801 95.0538L24.0931 95.8007L24.6122 96.6115L25.2071 97.2822L25.802 97.5746L26.5376 97.8015L27.4353 97.8662L27.5002 98.1692L28.9929 97.65L30.4748 96.6877L30.9182 95.8654L31.5023 95.2815C31.3942 95.0148 31.322 94.7153 31.286 94.383L31.3616 93.3454C31.3184 93.0202 31.2427 92.6782 31.1345 92.3176C31.0263 92.0367 30.9291 91.7115 30.8425 91.3438C30.5973 91.2649 30.3485 91.1417 30.0961 90.976L29.5012 90.3168L29.2849 89.9376L28.9171 90.1653L28.0194 89.9376L27.4353 89.4945ZM31.5023 89.646L31.578 90.2406L31.7294 89.7976L31.5023 89.646ZM30.1719 89.9376C30.1935 90.0536 30.2439 90.1546 30.3233 90.2406C30.3161 90.1325 30.2656 90.0315 30.1719 89.9376ZM23.7253 91.4953L23.801 91.723V91.4953H23.7253ZM33.287 92.8368C33.2942 92.9733 33.3447 93.1212 33.4384 93.2798C33.424 93.1283 33.3735 92.9812 33.287 92.8368ZM32.0972 93.2798L32.0215 93.94C32.0576 94.1491 32.1332 94.3476 32.2486 94.5345L32.1729 93.7238L32.2486 93.496C32.2342 93.3959 32.1837 93.3233 32.0972 93.2798ZM33.2112 94.0915L33.3627 94.3183C33.341 94.2173 33.2906 94.142 33.2112 94.0915ZM23.8768 96.8277V97.1307L24.1688 96.9792L23.8768 96.8277ZM22.7626 97.2822V97.1307H22.687L22.7626 97.2822ZM24.9908 97.7253C25.0341 97.9565 25.1567 98.1763 25.3586 98.3854L24.9908 97.7253ZM23.2819 97.8662C23.289 97.9388 23.3395 97.9884 23.4333 98.0177C23.4117 97.9672 23.3612 97.9167 23.2819 97.8662ZM27.5002 98.2445V98.3854L27.6516 98.3207L27.5002 98.2445ZM30.6153 98.4616V98.6122H30.6911L30.9939 98.5369L30.6153 98.4616ZM28.6143 98.9046L28.69 99.283L28.8415 99.1315L28.69 98.7638L28.6143 98.9046ZM30.0205 98.7638C30.0637 98.8648 30.1394 98.9374 30.2476 98.98C30.2043 98.894 30.1286 98.8214 30.0205 98.7638Z" fill="#EE7D35"/>
<path d="M41.12 87.3528L42.234 87.5691L42.3855 87.4176C42.6451 87.5835 42.8903 87.8323 43.121 88.164C43.2796 88.0847 43.4527 88.0342 43.6401 88.0126L43.9322 88.3804L43.7916 88.6075C43.9935 88.6003 44.1918 88.5498 44.3865 88.456L44.6785 88.8344C44.8227 89.1162 45.021 89.3607 45.2735 89.5698C45.634 89.8011 45.9044 90.1219 46.0847 90.533C46.3803 90.836 46.6291 91.1816 46.831 91.5715L46.9716 92.7606L46.831 92.8368V92.9777H46.9067L47.1231 94.0153L47.0473 94.1668L46.7552 95.4977C46.6543 95.8867 46.4813 96.3084 46.2361 96.763L45.5655 97.8662C45.3275 98.1479 45.0319 98.4217 44.6785 98.6884C44.4045 98.9915 44.0584 99.236 43.6401 99.4239L42.4503 100.018L40.9685 100.246H40.233L40.0059 100.321L38.3077 99.6507C37.9399 99.5072 37.5686 99.283 37.1936 98.98C36.8619 98.7859 36.541 98.5157 36.231 98.1692C35.9713 97.8803 35.7226 97.5596 35.4846 97.206C35.2827 96.8676 35.1096 96.4458 34.9655 95.9407C34.8068 95.6022 34.7095 95.2088 34.6734 94.7622L34.5977 94.5345L34.6734 93.8646L34.5977 93.2798C34.6337 92.7827 34.7816 92.3105 35.0411 91.863C35.07 91.5387 35.1709 91.171 35.344 90.7598C35.4883 90.4134 35.7082 90.0421 36.0038 89.646L36.9665 88.8344C37.2982 88.5895 37.6948 88.3912 38.1562 88.2397L38.7511 87.8611L39.0432 88.3154C39.2235 88.0198 39.4975 87.7963 39.8653 87.6448C40.2475 87.6015 40.6657 87.5042 41.12 87.3528ZM43.413 88.6075C43.4635 88.7733 43.5392 88.946 43.6401 89.1268L43.7159 88.6829L43.413 88.6075ZM40.8279 89.4945C40.6044 89.6815 40.3304 89.8552 40.0059 90.0138L39.411 90.0891L39.346 89.7214C39.1442 89.8658 38.9928 90.0643 38.8918 90.3168L38.1562 90.836C37.9688 90.9291 37.8209 91.0771 37.7128 91.2791L37.9291 91.863L37.5614 92.0145L37.1179 92.0907L36.9665 92.0145C36.9881 92.1297 37.0386 92.2307 37.1179 92.3176L37.345 92.4584L37.1936 92.9777C37.1575 93.2373 37.0819 93.5111 36.9665 93.7991L36.8259 94.4592C37.0566 94.5815 37.1791 94.78 37.1936 95.0538L37.4856 95.8007L38.0049 96.6115L38.5997 97.2822L39.1946 97.5746L39.9301 97.8015L40.8279 97.8662L40.8928 98.1692L42.3855 97.65L43.8673 96.6877L44.3107 95.8654L44.8948 95.2815C44.7867 95.0148 44.7146 94.7153 44.6785 94.383L44.7542 93.3454C44.711 93.0202 44.6353 92.6782 44.5271 92.3176C44.4189 92.0367 44.3216 91.7115 44.2351 91.3438C43.9899 91.2649 43.7411 91.1417 43.4887 90.976L42.8938 90.3168L42.6775 89.9376L42.3097 90.1653L41.412 89.9376L40.8279 89.4945ZM44.8948 89.646L44.9706 90.2406L45.122 89.7976L44.8948 89.646ZM43.5645 89.9376C43.5861 90.0536 43.6365 90.1546 43.7159 90.2406C43.7086 90.1325 43.6582 90.0315 43.5645 89.9376ZM37.1179 91.4953L37.1936 91.723V91.4953H37.1179ZM46.6796 92.8368C46.6867 92.9733 46.7373 93.1212 46.831 93.2798C46.8166 93.1283 46.766 92.9812 46.6796 92.8368ZM45.4897 93.2798L45.4141 93.94C45.4501 94.1491 45.5258 94.3476 45.6412 94.5345L45.5655 93.7238L45.6412 93.496C45.6267 93.3959 45.5763 93.3233 45.4897 93.2798ZM46.6038 94.0915L46.7552 94.3183C46.7336 94.2173 46.6832 94.142 46.6038 94.0915ZM37.2694 96.8277V97.1307L37.5614 96.9792L37.2694 96.8277ZM36.1552 97.2822V97.1307H36.0795L36.1552 97.2822ZM38.3834 97.7253C38.4267 97.9565 38.5493 98.1763 38.7511 98.3854L38.3834 97.7253ZM36.6744 97.8662C36.6816 97.9388 36.7321 97.9884 36.8259 98.0177C36.8043 97.9672 36.7537 97.9167 36.6744 97.8662ZM40.8928 98.2445V98.3854L41.0442 98.3207L40.8928 98.2445ZM44.008 98.4616V98.6122H44.0836L44.3865 98.5369L44.008 98.4616ZM42.0069 98.9046L42.0826 99.283L42.234 99.1315L42.0826 98.7638L42.0069 98.9046ZM43.413 98.7638C43.4563 98.8648 43.532 98.9374 43.6401 98.98C43.5969 98.894 43.5211 98.8214 43.413 98.7638Z" fill="#EE7D35"/>
<path d="M57.5913 88.521L57.5155 88.8238L57.7427 88.6723C57.7283 88.6003 57.6778 88.5498 57.5913 88.521ZM58.727 89.0506L58.6513 89.3537C58.6513 89.592 58.7017 89.8446 58.8027 90.1113L58.8784 89.2784L58.727 89.0506ZM58.7811 92.9662C58.8099 93.0318 58.8784 93.1 58.9866 93.1718C58.965 93.0708 58.8965 93.0025 58.7811 92.9662ZM58.4891 97.4985C58.5251 97.6863 58.6297 97.8591 58.8027 98.0177C58.7811 97.7874 58.6766 97.6137 58.4891 97.4985ZM55.4605 89.732H55.6119V89.5814H55.5361L55.4605 89.732ZM57.5913 89.732C57.6274 89.8189 57.703 89.8694 57.8184 89.8836L57.5913 89.732ZM59.084 93.8966V94.5133L59.3977 94.0047L59.084 93.8966ZM56.2933 90.1866L56.2176 90.4134L56.4447 90.4896C56.4304 90.3744 56.3799 90.2734 56.2933 90.1866ZM55.958 98.98L55.8499 99.3912L56.1636 99.2831L55.958 98.98ZM48.7651 91.8737C48.7795 91.9393 48.8301 91.9898 48.9165 92.0252C48.9022 91.9747 48.8517 91.9242 48.7651 91.8737ZM50.2794 92.2529H50.4308V92.1014H50.3552L50.2794 92.2529ZM49.6737 93.0858L49.598 93.3127H49.7494L49.8251 93.0858H49.6737ZM50.128 93.8532L50.0523 94.0809H50.2037V93.8532H50.128ZM48.8409 95.0653C48.8625 95.115 48.913 95.1655 48.9923 95.216C48.9778 95.1513 48.9274 95.1008 48.8409 95.0653ZM50.2794 95.4437L49.9009 95.5952L50.128 95.822H50.4308L50.2794 95.4437ZM49.2194 96.0489C49.2699 96.165 49.3708 96.2651 49.5223 96.3519C49.4646 96.2367 49.3636 96.1357 49.2194 96.0489ZM53.7083 84.4216L53.4811 84.6487L53.8597 84.8001C53.8524 84.6632 53.802 84.537 53.7083 84.4216ZM52.1074 98.0931V97.9424H52.0209L52.1074 98.0931ZM52.7239 84.9516C52.7384 85.0165 52.7889 85.0669 52.8753 85.103C52.8537 85.0526 52.8032 85.0021 52.7239 84.9516ZM50.7337 98.0177C50.7553 98.0682 50.8058 98.1188 50.8851 98.1693C50.878 98.1046 50.8274 98.0541 50.7337 98.0177ZM53.6974 98.2446L53.6217 98.4723L53.7731 98.5476L53.8489 98.2446H53.6974ZM53.6325 85.3302C53.6541 85.4311 53.7046 85.5069 53.7839 85.5573C53.7623 85.4564 53.7118 85.3806 53.6325 85.3302ZM52.9511 86.0116C52.9799 86.1198 53.0557 86.1954 53.1782 86.2388L52.9511 86.0116ZM54.6817 99.6189V99.7704L54.8331 99.6942L54.6817 99.6189ZM51.8803 86.5416L51.956 86.7795L51.8803 86.931L51.7288 87.0067L51.8803 86.5416ZM52.9403 82.5828C53.2575 82.6982 53.5893 82.8533 53.9354 83.0479L55.0819 83.8159L55.7741 83.6536L57.9158 82.5828L58.5972 82.8965C58.7703 83.1633 58.9253 83.4698 59.0623 83.8159L59.5166 84.1944C59.4878 84.3387 59.412 84.4648 59.2895 84.573L58.4457 85.1138L57.0721 85.7195C57.1154 85.871 57.1911 86.026 57.2993 86.1846L57.3749 87.0932C57.6634 87.1148 57.9446 87.2194 58.2186 87.4069C58.2186 87.6521 58.2943 87.8793 58.4457 88.0884C58.6837 88.2902 58.9145 88.521 59.138 88.7804C59.3039 89.0329 59.4301 89.3103 59.5166 89.6133L60.2845 91.5281C60.3206 91.8161 60.4216 92.1227 60.5874 92.447L60.7388 93.5182L60.6632 94.3618L60.7388 94.6648L60.5874 95.8867C60.5154 96.2261 60.3387 96.5327 60.0574 96.8065L58.9866 98.4829L58.2943 99.175L57.3749 99.6295C57.0793 99.7952 56.7476 99.9467 56.3799 100.084L55.309 100.398L54.4762 100.473L53.254 100.322L52.1831 100.008L50.42 98.9375L49.7386 98.2561L49.1978 97.4117C48.9959 97.1379 48.8192 96.8313 48.6678 96.4928L48.2784 95.6599L48.2027 94.9679L48.2784 94.7401L47.9863 93.8966C48.0368 93.8824 48.0837 93.8319 48.127 93.7451L48.3541 92.5232L49.8143 89.8517L51.4908 88.7051L53.6325 88.0884L54.7033 87.9369C54.9124 87.9802 55.1144 88.0559 55.309 88.164C55.4244 88.164 55.5037 88.1135 55.547 88.0126L54.8547 87.3312C54.7249 87.0572 54.4942 86.9022 54.1625 86.8661L53.1782 87.3312C52.8753 87.4466 52.5689 87.598 52.2588 87.7855L51.188 88.164C51.0149 88.2145 50.8095 88.2398 50.5715 88.2398L50.42 87.8612C50.3768 87.5656 50.301 87.2591 50.1929 86.9418L49.8901 86.6389L49.9657 85.9467C50.3047 85.8602 50.6616 85.734 51.0366 85.5681L51.9451 85.1138L52.1831 84.8001L51.6423 84.4973L51.2637 84.3459L51.5666 83.8159L52.9403 82.5828ZM53.6325 90.4569C53.445 90.6225 53.2143 90.7776 52.9403 90.922C52.7384 91.016 52.5364 91.1418 52.3346 91.3004L51.6423 91.4519C51.4692 91.6034 51.3683 91.809 51.3394 92.0686C51.1735 92.2272 51.0221 92.4293 50.8851 92.6747L50.7229 92.9015L50.8851 93.3667L50.5715 94.1234C50.5787 94.3405 50.6291 94.5709 50.7229 94.8163C50.622 94.9244 50.4958 94.9998 50.3444 95.0432C50.3876 95.1371 50.4634 95.2124 50.5715 95.27C50.7302 95.4215 50.8851 95.6023 51.0366 95.8114C51.1519 96.0205 51.3034 96.2225 51.4908 96.4166L51.9451 97.0333L52.486 97.4879C52.6735 97.6394 52.8501 97.8193 53.016 98.0284L54.4005 98.2561L54.6276 98.1799L55.4713 98.1046L56.6935 97.3363C56.8882 97.199 57.0649 97.0227 57.2235 96.8065C57.3966 96.6408 57.5516 96.4352 57.6886 96.1898L57.9915 95.5084L58.2186 94.6648L58.1429 92.9777C58.0996 92.7465 58.024 92.5444 57.9158 92.3717L56.9206 91.3004L56.3041 90.8467C56.0734 90.7962 55.821 90.7165 55.547 90.6084L53.6325 90.4569ZM57.9158 92.0686V91.9065H57.84L57.9158 92.0686ZM51.2637 97.261C51.2709 97.3328 51.3214 97.3833 51.4152 97.4117C51.4007 97.3612 51.3502 97.3107 51.2637 97.261ZM56.0013 83.8483L55.9256 84.1512L56.1527 84.0755L56.0013 83.8483ZM57.2884 84.8326V84.6812H57.2127L57.2884 84.8326ZM55.0928 85.4383C55.1071 85.5032 55.1576 85.5537 55.2442 85.5897C55.2297 85.5393 55.1792 85.4888 55.0928 85.4383ZM56.607 85.8169H56.7584V85.6655H56.6827L56.607 85.8169ZM56.0013 86.6497L55.9256 86.8769H56.077L56.1527 86.6497H56.0013ZM56.4555 87.4177L56.3799 87.6449H56.5313V87.4177H56.4555Z" fill="#EE7D35"/>
<path d="M72.3127 83.686L73.1455 83.7618C73.4051 83.7834 73.6827 83.8338 73.9783 83.9132L74.2055 84.3674L74.0541 84.6703L74.1297 85.4274L74.0541 85.6546L74.1297 86.336L74.0541 86.5632L73.8269 86.7903L74.0541 87.2554L74.1297 88.164L74.0541 88.9966L74.1297 89.678L74.0541 89.9057L74.2055 90.7386C74.2199 91.0053 74.2703 91.2826 74.3569 91.5715C74.2703 91.8382 74.1947 92.1412 74.1297 92.4797L74.2812 92.7066L74.1297 93.3995C74.1513 93.6086 74.2019 93.8354 74.2812 94.0809L74.1297 94.3077L74.2812 94.9138V95.8973L74.4326 96.8817C74.4326 97.1848 74.4073 97.5126 74.3569 97.8662L74.4326 98.396L74.3569 98.5476V98.7753L74.4326 99.4567L74.2812 99.6942L73.4483 99.921L72.8426 99.8457L72.1612 100.073L71.8476 98.7753L71.2418 99.229L68.7432 100.224L67.9104 100.3L67.3046 100.073C67.3479 99.9502 67.4236 99.8244 67.5317 99.6942L67.3803 99.532L67.0775 99.7704C66.8683 99.8997 66.616 99.975 66.3204 99.9972C66.0679 99.882 65.7867 99.781 65.4767 99.6942C65.2388 99.579 64.9611 99.4744 64.6438 99.3805L62.9781 97.6393L62.4481 96.9579C62.376 96.7701 62.275 96.5681 62.1452 96.3519L61.8423 95.4436C61.8135 95.2124 61.7378 94.9598 61.6152 94.686V93.551L61.6909 92.6312L61.9181 91.723C62.0118 91.4483 62.138 91.171 62.2966 90.8901L63.1295 89.4511L64.341 88.3912C64.5645 88.2469 64.7916 88.0703 65.0224 87.8611L65.7903 87.634C66.0571 87.5835 66.36 87.5583 66.6989 87.5583L67.5317 87.4068L68.5161 87.5583C68.8117 87.5655 69.1145 87.616 69.4247 87.7097L71.1661 88.2398C71.267 88.4416 71.4184 88.6182 71.6204 88.7697C71.7141 88.5462 71.7646 88.2938 71.7718 88.0126L71.6961 87.4068L71.7718 87.1797C71.7574 86.8408 71.7069 86.4839 71.6204 86.1089L71.7718 85.1246L71.6961 84.6703L71.7718 84.2918L72.3127 83.686ZM72.3127 84.746C72.3486 84.847 72.4244 84.8975 72.5398 84.8975C72.4965 84.8254 72.4208 84.7748 72.3127 84.746ZM72.3127 87.3312L72.2369 87.634L72.4641 87.4826C72.4496 87.4105 72.3991 87.36 72.3127 87.3312ZM73.4483 87.8611L73.3726 88.164C73.3726 88.402 73.4231 88.6545 73.524 88.9212L73.5998 88.0883L73.4483 87.8611ZM67.3803 87.9369C67.402 87.9873 67.4524 88.0378 67.5317 88.0883C67.5174 88.0162 67.4669 87.9657 67.3803 87.9369ZM66.2446 88.0126C66.2735 88.1496 66.3492 88.2758 66.4718 88.3912C66.4574 88.2253 66.3816 88.0991 66.2446 88.0126ZM69.2732 88.3912C69.2877 88.456 69.3381 88.5066 69.4247 88.5426C69.4174 88.4705 69.367 88.42 69.2732 88.3912ZM70.1818 88.5426H70.3332V88.3912H70.2575L70.1818 88.5426ZM72.3127 88.5426C72.3486 88.6288 72.4244 88.6793 72.5398 88.6944L72.3127 88.5426ZM67.6075 88.6182V89.0728L67.8346 88.6944L67.6075 88.6182ZM71.0146 88.9966L70.939 89.2243L71.1661 89.2996C71.1516 89.1844 71.1012 89.0834 71.0146 88.9966ZM67.6075 89.4511L67.5317 89.7542L66.7747 89.678L66.0175 89.981C65.7651 90.0607 65.5343 90.1866 65.3252 90.3593L64.4167 92.6312C64.3302 92.8838 64.2797 93.1647 64.2652 93.4748L64.341 93.8531L64.1895 94.0809C64.2039 94.1314 64.2544 94.1819 64.341 94.2324L64.4167 95.2921L65.2496 96.7302L66.8503 97.4116C67.1243 97.5055 67.402 97.556 67.6832 97.5631L68.2132 97.7909L68.4403 97.6393L69.3489 97.4878L70.0304 97.0333L70.5604 96.4281C70.7695 96.3271 70.9461 96.1755 71.0904 95.9735L71.4689 95.1406C71.5916 94.9315 71.6672 94.7047 71.6961 94.4592L71.7718 93.551C71.7141 93.2834 71.6132 93.0025 71.4689 92.7066C71.3752 92.4691 71.3247 92.1909 71.3175 91.8736L71.6204 91.6468L71.4689 91.1923C71.4473 91.0487 71.3464 90.9477 71.1661 90.8901L71.3175 91.3438L71.0146 91.42L70.8632 91.3438L70.4847 90.7386C70.2756 90.5942 70.0736 90.4178 69.879 90.2087C69.6698 90.1219 69.4427 90.0714 69.1975 90.0572C68.9307 89.9845 68.6531 89.8835 68.3647 89.7542L67.6075 89.4511ZM63.1295 90.284L63.0538 90.5871L63.281 90.5109L63.1295 90.284ZM64.4167 91.2685V91.1169H64.341L64.4167 91.2685ZM62.221 91.8736C62.2354 91.9392 62.2858 91.9897 62.3724 92.0252C62.3579 91.9747 62.3075 91.9242 62.221 91.8736ZM63.7353 92.2529H63.8867V92.1014H63.8109L63.7353 92.2529ZM63.1295 93.0858L63.0538 93.3126H63.2052L63.281 93.0858H63.1295ZM72.2369 93.3126V93.6263L72.5398 93.4748L72.2369 93.3126ZM73.7512 93.9293V93.7778H73.6754L73.7512 93.9293ZM63.5838 93.8531L63.5081 94.0809H63.6595V93.8531H63.5838ZM73.6754 94.0809V94.3077H73.7512V94.0809H73.6754ZM72.994 94.9891L73.0697 95.1406L73.3726 95.0653L72.994 94.9891ZM62.2966 95.0653C62.3183 95.1149 62.3688 95.1654 62.4481 95.2159C62.4337 95.1512 62.3832 95.1007 62.2966 95.0653ZM63.7353 95.4436L63.3566 95.5952L63.5838 95.822H63.8867L63.7353 95.4436ZM62.6752 96.0488C62.7258 96.1649 62.8267 96.265 62.9781 96.3519C62.9204 96.2367 62.8194 96.1357 62.6752 96.0488ZM71.1661 96.3519H71.3175L71.2418 96.2003L71.1661 96.3519ZM71.4689 96.2766C71.3896 96.3918 71.3391 96.5433 71.3175 96.7302C71.4184 96.6009 71.4689 96.4493 71.4689 96.2766ZM71.3933 96.8817L71.5447 96.9579L71.4689 96.7302L71.3933 96.8817ZM73.6754 97.4116L73.4483 97.6393L73.8269 97.7909C73.8197 97.6535 73.7692 97.5277 73.6754 97.4116ZM65.5632 98.093V97.9424H65.4767L65.5632 98.093ZM72.6912 97.9424C72.7056 98.0071 72.756 98.0576 72.8426 98.093C72.821 98.0434 72.7705 97.9929 72.6912 97.9424ZM64.1895 98.0177C64.2112 98.0682 64.2617 98.1187 64.341 98.1692C64.3337 98.1045 64.2833 98.054 64.1895 98.0177ZM67.1532 98.2445L67.0775 98.4722L67.2289 98.5476L67.3046 98.2445H67.1532ZM73.5998 98.3207C73.6214 98.4217 73.6719 98.4971 73.7512 98.5476C73.7296 98.4466 73.6791 98.3712 73.5998 98.3207ZM72.9183 99.0021C72.9472 99.1102 73.0228 99.1855 73.1455 99.229L72.9183 99.0021ZM68.1375 99.6188V99.7704L68.2889 99.6942L68.1375 99.6188ZM71.8476 99.532L71.9232 99.7704L71.8476 99.921L71.6961 99.9972L71.8476 99.532Z" fill="#EE7D35"/>
<path d="M80.7295 87.2338L81.3352 87.3096L81.4867 87.2338H81.7139L82.6981 87.461L83.6716 87.5367C83.8951 87.6881 84.1475 87.8108 84.4287 87.9044L85.1102 88.3587C85.3338 88.503 85.5572 88.6794 85.7808 88.8885L86.3865 89.4946C86.5451 89.7249 86.6965 90.0032 86.8408 90.3275L87.2951 91.0735L87.4465 91.7549L87.2951 91.9818L86.9165 91.8311L87.0679 92.2095C87.3491 92.2458 87.5258 92.4222 87.5979 92.7394L87.7494 93.7132L87.6736 94.6967C87.5222 94.928 87.2951 95.0538 86.9922 95.076H86.2351L86.0836 94.6967L85.9322 94.9998L85.2616 95.2275L84.2016 95.379L82.3953 95.1513L82.1682 95.2275L81.4867 95.076L81.2596 95.2275L80.4375 95.3028L79.6046 95.2275L79.1504 94.9998L78.8475 95.2275C78.5302 95.2275 78.2815 95.3746 78.1012 95.6705L80.1346 97.261L81.8653 97.6394L82.8495 97.5632C83.1092 97.4701 83.3831 97.3434 83.6716 97.1848L84.5045 96.8065L85.1859 96.6549L85.4131 96.8065L86.2351 97.7147C86.2279 97.9238 86.1774 98.148 86.0836 98.3854L84.6559 99.3699L83.8988 99.6729C83.632 99.781 83.3326 99.882 83.001 99.9751C82.7053 100.069 82.3773 100.145 82.0167 100.203L81.0324 100.051C80.78 100.008 80.506 99.9325 80.2104 99.8244C79.958 99.7952 79.6803 99.7199 79.3775 99.5967L78.5446 99.2184C78.285 99.1315 78.0363 98.98 77.7983 98.7638C77.5964 98.5698 77.3693 98.3961 77.1169 98.2446L76.5112 97.6394C76.3525 97.4515 76.2011 97.2247 76.0569 96.958L75.6134 96.2004L75.3105 94.243L75.3863 94.0153L75.3105 93.3339L75.3863 92.361L75.754 91.4519C75.8262 91.2144 75.9271 90.9619 76.0569 90.6952L76.4354 89.8729C76.6013 89.678 76.8032 89.4768 77.0411 89.2677L77.5712 88.5859L78.3175 88.1316L79.9075 87.461C80.1599 87.4177 80.4339 87.342 80.7295 87.2338ZM85.1859 89.1162C85.2003 89.1667 85.2508 89.2172 85.3373 89.2677C85.3229 89.2022 85.2724 89.1517 85.1859 89.1162ZM79.5289 89.4184C79.5362 89.5273 79.5866 89.6275 79.6803 89.7214C79.6803 89.6133 79.6299 89.5123 79.5289 89.4184ZM81.3352 89.5699L80.0589 90.0244L79.0746 90.5437L78.3932 90.619L78.6204 90.9982C78.469 91.366 78.2707 91.7443 78.0255 92.1333L77.9497 92.8909L78.469 92.9662L79.8317 92.6641V92.8147L80.6647 92.7394H80.8809L81.3352 92.9662L80.9567 93.4101C81.2668 93.2081 81.6201 93.0096 82.0167 92.8147L83.3687 92.6641L84.0502 92.7394L85.4131 92.5879C85.2904 92.4727 85.1895 92.3211 85.1102 92.1333C84.9804 91.7806 84.7532 91.4271 84.4287 91.0735C84.2269 90.8281 83.9493 90.58 83.5959 90.3275C83.43 90.183 83.2822 90.0067 83.1524 89.7976L82.6224 89.9491C82.2258 89.8906 81.7968 89.7648 81.3352 89.5699ZM86.008 90.176L86.1594 90.3275L86.0836 90.0244L86.008 90.176ZM86.3865 90.7705C86.4226 90.9149 86.4982 91.0408 86.6136 91.1497C86.5704 91.0337 86.4947 90.9079 86.3865 90.7705ZM77.6469 90.9982C77.6901 91.0913 77.7659 91.1418 77.8741 91.1497L77.6469 90.9982ZM76.2083 91.9818V91.8311H76.1326L76.2083 91.9818ZM76.284 92.058C76.1902 92.1803 76.1398 92.3318 76.1326 92.5125L76.4354 92.2848L76.284 92.058ZM77.0411 92.5125C77.0556 92.5772 77.1061 92.6277 77.1926 92.6641C77.1781 92.5914 77.1277 92.5409 77.0411 92.5125ZM85.9322 92.7394C85.9466 92.8041 85.9971 92.8546 86.0836 92.8909C86.0765 92.8191 86.026 92.7686 85.9322 92.7394ZM75.8297 93.3339L75.9055 93.5617L75.9811 93.3339H75.8297ZM80.1346 93.4101V93.5617L80.286 93.4855L80.1346 93.4101ZM82.0167 94.3184C81.8869 94.383 81.7859 94.4841 81.7139 94.6214C81.8436 94.5709 81.9446 94.4699 82.0167 94.3184ZM75.9055 95.076V95.2275L76.0569 95.1513L75.9055 95.076ZM77.7983 96.0489C77.8344 96.1791 77.9101 96.3049 78.0255 96.4281C77.9966 96.2908 77.9209 96.1649 77.7983 96.0489ZM77.5712 97.7147C77.5855 97.7794 77.6361 97.8299 77.7226 97.8662C77.7082 97.7944 77.6577 97.7439 77.5712 97.7147ZM82.0924 98.1692C82.114 98.2774 82.1645 98.3748 82.2438 98.4616L82.3196 98.2446L82.0924 98.1692ZM78.5446 98.4616C78.5518 98.5697 78.6023 98.6708 78.6961 98.7638C78.6961 98.6557 78.6456 98.5547 78.5446 98.4616ZM79.8317 98.4616L79.7561 98.6885L79.9832 98.537L79.8317 98.4616ZM79.6803 98.84C79.7236 98.9118 79.7993 98.9623 79.9075 98.9915L79.6803 98.84Z" fill="#EE7D35"/>
<path d="M90.0822 83.1777C90.5439 83.2282 91.0091 83.3544 91.4778 83.5563L91.3369 85.4708L91.4778 85.6871L91.4025 85.9143L91.2616 86.1306C91.3192 86.5199 91.4415 86.913 91.6293 87.3096C91.492 87.6629 91.3954 88.0811 91.3369 88.5643L91.4778 89.6674L91.4025 89.8836L91.4778 90.5543L91.3369 90.7705H90.6015C90.9116 90.8786 91.1313 91.0771 91.2616 91.366L91.554 91.5822L91.3369 92.3176L91.4778 93.2046L91.1101 93.4314C91.3192 93.7849 91.4672 94.1996 91.554 94.6755L91.6293 95.3462L91.554 95.8548L91.6293 96.0817L91.3369 96.2979L91.6293 97.0333L91.554 98.148L91.7046 99.0996L91.4025 99.4674C91.3661 99.6765 91.2687 99.875 91.1101 100.062L91.2616 99.8351L91.1101 99.7589L89.866 99.6942L89.1306 99.5427L88.9791 99.3265L89.0553 98.148L88.9037 96.6656L88.9791 95.4109L88.9037 94.3831L88.9791 94.1668C88.8851 93.6698 88.8355 93.1284 88.8275 92.5445L88.7628 90.9982L88.8275 89.592C88.8275 89.1162 88.7806 88.6003 88.6875 88.045L88.7628 86.4983L89.3468 85.7629C89.4912 85.8349 89.664 85.907 89.866 85.9792L89.563 85.6871L89.3468 85.5465C89.1811 85.5897 88.9861 85.6114 88.7628 85.6114L88.6113 85.168L88.7628 84.9516L88.6113 84.0646L88.8275 83.5563C89.1669 83.4048 89.5851 83.2787 90.0822 83.1777ZM89.1953 84.8001L89.1306 85.103L89.1953 85.2436L89.3468 85.3194L89.6392 85.2436C89.524 85.085 89.376 84.9371 89.1953 84.8001ZM89.2715 89.8189C89.2998 89.927 89.376 90.0244 89.4983 90.1113C89.477 89.9952 89.4008 89.8986 89.2715 89.8189ZM90.4499 93.8647C90.5509 94.0304 90.6989 94.1784 90.8939 94.3077C90.807 94.1349 90.659 93.987 90.4499 93.8647ZM90.2993 97.1848V97.0333H90.2337L90.2993 97.1848ZM89.423 98.148L89.4983 98.3642L89.563 98.2127L89.423 98.148ZM90.7423 98.288L90.9692 98.3642L91.0347 98.148H90.8939L90.7423 98.288Z" fill="#EE7D35"/>
<path d="M99.0947 87.3528L100.208 87.5691L100.36 87.4176C100.62 87.5835 100.865 87.8323 101.095 88.164C101.254 88.0847 101.428 88.0342 101.615 88.0126L101.907 88.3804L101.766 88.6075C101.968 88.6003 102.167 88.5498 102.361 88.456L102.653 88.8344C102.798 89.1162 102.996 89.3607 103.248 89.5698C103.608 89.8011 103.879 90.1219 104.059 90.533C104.355 90.836 104.603 91.1816 104.805 91.5715L104.946 92.7606L104.805 92.8368V92.9777H104.882L105.098 94.0153L105.022 94.1668L104.73 95.4977C104.629 95.8867 104.455 96.3084 104.211 96.763L103.54 97.8662C103.302 98.1479 103.007 98.4217 102.653 98.6884C102.379 98.9915 102.033 99.236 101.615 99.4239L100.425 100.018L98.9432 100.246H98.2077L97.9809 100.321L96.2823 99.6507C95.9145 99.5072 95.5433 99.283 95.1685 98.98C94.8362 98.7859 94.5154 98.5157 94.2053 98.1692C93.9457 97.8803 93.6976 97.5596 93.4592 97.206C93.2572 96.8676 93.0844 96.4458 92.94 95.9407C92.7814 95.6022 92.6839 95.2088 92.6476 94.7622L92.5723 94.5345L92.6476 93.8646L92.5723 93.2798C92.6086 92.7827 92.7566 92.3105 93.0162 91.863C93.0445 91.5387 93.1456 91.171 93.3183 90.7598C93.4628 90.4134 93.6825 90.0421 93.9785 89.646L94.9407 88.8344C95.273 88.5895 95.6691 88.3912 96.1307 88.2397L96.7262 87.8611L97.0177 88.3154C97.1985 88.0198 97.4723 87.7963 97.84 87.6448C98.2219 87.6015 98.6401 87.5042 99.0947 87.3528ZM101.388 88.6075C101.438 88.7733 101.514 88.946 101.615 89.1268L101.691 88.6829L101.388 88.6075ZM98.8023 89.4945C98.579 89.6815 98.3052 89.8552 97.9809 90.0138L97.3854 90.0891L97.3207 89.7214C97.1187 89.8658 96.9672 90.0643 96.8662 90.3168L96.1307 90.836C95.9438 90.9291 95.7958 91.0771 95.6877 91.2791L95.9039 91.863L95.5362 92.0145L95.0923 92.0907L94.9407 92.0145C94.9629 92.1297 95.0134 92.2307 95.0923 92.3176L95.32 92.4584L95.1685 92.9777C95.1321 93.2373 95.0568 93.5111 94.9407 93.7991L94.8007 94.4592C95.0311 94.5815 95.1534 94.78 95.1685 95.0538L95.46 95.8007L95.9792 96.6115L96.5747 97.2822L97.1692 97.5746L97.9047 97.8015L98.8023 97.8662L98.8678 98.1692L100.36 97.65L101.842 96.6877L102.285 95.8654L102.869 95.2815C102.761 95.0148 102.689 94.7153 102.653 94.383L102.728 93.3454C102.686 93.0202 102.61 92.6782 102.502 92.3176C102.394 92.0367 102.296 91.7115 102.209 91.3438C101.965 91.2649 101.716 91.1417 101.463 90.976L100.869 90.3168L100.652 89.9376L100.285 90.1653L99.3862 89.9376L98.8023 89.4945ZM102.869 89.646L102.946 90.2406L103.096 89.7976L102.869 89.646ZM101.539 89.9376C101.561 90.0536 101.611 90.1546 101.691 90.2406C101.683 90.1325 101.632 90.0315 101.539 89.9376ZM95.0923 91.4953L95.1685 91.723V91.4953H95.0923ZM104.654 92.8368C104.661 92.9733 104.712 93.1212 104.805 93.2798C104.791 93.1283 104.741 92.9812 104.654 92.8368ZM103.465 93.2798L103.389 93.94C103.425 94.1491 103.5 94.3476 103.615 94.5345L103.54 93.7238L103.615 93.496C103.601 93.3959 103.551 93.3233 103.465 93.2798ZM104.579 94.0915L104.73 94.3183C104.708 94.2173 104.657 94.142 104.579 94.0915ZM95.2438 96.8277V97.1307L95.5362 96.9792L95.2438 96.8277ZM94.13 97.2822V97.1307H94.0538L94.13 97.2822ZM96.3576 97.7253C96.401 97.9565 96.5242 98.1763 96.7262 98.3854L96.3576 97.7253ZM94.6492 97.8662C94.6563 97.9388 94.7068 97.9884 94.8007 98.0177C94.7786 97.9672 94.7281 97.9167 94.6492 97.8662ZM98.8678 98.2445V98.3854L99.0185 98.3207L98.8678 98.2445ZM101.982 98.4616V98.6122H102.059L102.361 98.5369L101.982 98.4616ZM99.9816 98.9046L100.057 99.283L100.208 99.1315L100.057 98.7638L99.9816 98.9046ZM101.388 98.7638C101.431 98.8648 101.507 98.9374 101.615 98.98C101.571 98.894 101.496 98.8214 101.388 98.7638Z" fill="#EE7D35"/>
<defs>
<linearGradient id="paint0_linear_1202_559" x1="27.7637" y1="11.9487" x2="81.4776" y2="63.3626" gradientUnits="userSpaceOnUse">
<stop stop-color="#ED4A27"/>
<stop offset="1" stop-color="#EF9A3E"/>
</linearGradient>
</defs>
</svg>
